<?xml version="1.0" standalone="no"?>
<!DOCTYPE svg PUBLIC "-//W3C//DTD SVG 20010904//EN"
 "http://www.w3.org/TR/2001/REC-SVG-20010904/DTD/svg10.dtd">
<svg version="1.0" xmlns="http://www.w3.org/2000/svg"
 width="1000.000000pt" height="1000.000000pt" viewBox="0 0 1000.000000 1000.000000"
 preserveAspectRatio="xMidYMid meet">

<g transform="translate(0.000000,1000.000000) scale(0.100000,-0.100000)"
fill="#000000" stroke="none">
<path d="M0 5000 l0 -5000 5000 0 5000 0 0 5000 0 5000 -5000 0 -5000 0 0
-5000z m5740 3275 l0 -415 -90 0 -90 0 0 415 0 415 90 0 90 0 0 -415z m1730 0
l0 -415 -90 0 -90 0 0 415 0 415 90 0 90 0 0 -415z m-3470 -755 l0 -610 -90 0
-90 0 0 610 0 610 90 0 90 0 0 -610z m4360 -50 l0 -390 -90 0 -90 0 0 390 0
390 90 0 90 0 0 -390z m-5630 -345 l0 -215 -90 0 -90 0 0 215 0 215 90 0 90 0
0 -215z m3010 -130 l0 -85 -90 0 -90 0 0 85 0 85 90 0 90 0 0 -85z m1730 0 l0
-85 -90 0 -90 0 0 85 0 85 90 0 90 0 0 -85z m-4742 -1407 l2 -1118 -90 0 -90
0 0 1120 0 1121 88 -3 87 -3 3 -1117z m1272 2 l0 -1120 -90 0 -90 0 0 1120 0
1120 90 0 90 0 0 -1120z m1738 918 l2 -198 -90 0 -90 0 0 200 0 201 88 -3 87
-3 3 -197z m1732 7 l0 -195 -90 0 -90 0 0 195 0 195 90 0 90 0 0 -195z m650
-1250 l0 -795 -95 0 -95 0 0 795 0 795 95 0 95 0 0 -795z m-2990 -390 l0 -405
-90 0 -90 0 0 405 0 405 90 0 90 0 0 -405z m1480 0 l0 -405 -90 0 -90 0 0 405
0 405 90 0 90 0 0 -405z m-3882 -1087 l2 -478 -90 0 -90 0 0 480 0 481 88 -3
87 -3 3 -477z m1272 -603 l0 -1085 -90 0 -90 0 0 1085 0 1085 90 0 90 0 0
-1085z m1128 1063 c3 -16 -6 -18 -87 -18 -85 0 -91 1 -91 20 0 20 5 21 87 18
74 -3 88 -6 91 -20z m1482 2 c0 -19 -7 -20 -90 -20 -83 0 -90 1 -90 20 0 19 7
20 90 20 83 0 90 -1 90 -20z m1508 -1462 l2 -1478 -95 0 -95 0 0 1473 c0 811
3 1477 7 1481 4 4 46 5 93 4 l85 -3 3 -1477z m-2988 142 l0 -550 -90 0 -90 0
0 550 0 550 90 0 90 0 0 -550z m1480 0 l0 -550 -90 0 -90 0 0 550 0 550 90 0
90 0 0 -550z m-3880 -715 l0 -305 -90 0 -90 0 0 305 0 305 90 0 90 0 0 -305z
m2400 -755 l0 -150 -90 0 -90 0 0 150 0 150 90 0 90 0 0 -150z"/>
</g>
</svg>
